<svg width="120" height="120" viewBox="0 0 120 120" fill="none" xmlns="http://www.w3.org/2000/svg">
<rect width="120" height="120" rx="40" fill="#5050CE" fill-opacity="0.6"/>
<path d="M56.114 62.7968C56.6725 63.3254 57.5807 63.3252 58.1388 62.797L62.1908 58.9633C62.6375 58.5407 62.6438 57.8495 62.2048 57.4193C61.7657 56.9892 61.048 56.9833 60.6011 57.4059L57.1264 60.6932L51.0667 54.9599C50.5085 54.4318 49.6004 54.432 49.0422 54.9599L44.9667 58.8161C44.6899 59.0779 44.5374 59.4274 44.5374 59.8003C44.5374 60.1733 44.6898 60.5229 44.9666 60.7847L56.114 71.3316C56.672 71.8597 57.5804 71.8604 58.1388 71.3317L75.1485 55.2381C75.4253 54.9762 75.5778 54.6265 75.5778 54.2537C75.5776 53.8807 75.4252 53.5311 75.1485 53.2696L71.0733 49.4139C70.5152 48.8852 69.6069 48.8851 69.0483 49.4135L64.4606 53.7539C64.0139 54.1765 64.0076 54.8678 64.4466 55.2979C64.8857 55.7281 65.6038 55.734 66.0504 55.3112L70.0606 51.5173L72.9531 54.254L57.1265 69.2279L47.1623 59.8006L50.0548 57.0639L56.114 62.7968Z" fill="white"/>
<path d="M67.5487 23.1055H44.9207C43.5776 23.1055 42.4701 24.1574 42.4515 25.4501L42.4052 28.6954C42.3441 32.9248 38.8555 36.2882 34.4636 36.3525L31.0774 36.4014C29.7363 36.4209 28.6453 37.4872 28.6453 38.7784V55.3098C28.6453 73.4874 39.8462 89.8885 57.1816 97.0938L57.3612 97.1684C57.3907 97.1805 57.4209 97.1918 57.4514 97.2015L57.6369 97.2611C59.1934 97.7609 60.8918 97.7707 62.4797 97.2611L62.665 97.2015C62.6955 97.1918 62.7258 97.1805 62.7556 97.1682L62.935 97.0937C80.2697 89.8891 91.4708 73.4883 91.4708 55.3106V38.7787C91.4708 37.4874 90.3797 36.4212 89.0385 36.4017L85.6538 36.3528C81.2609 36.2885 77.772 32.9253 77.7111 28.6958L77.6643 25.4503C77.6452 24.1574 76.5376 23.1055 75.1946 23.1055H72.8411C72.2147 23.1055 71.7071 23.5943 71.7071 24.1973C71.7071 24.8002 72.2147 25.289 72.8411 25.289H75.1946C75.3041 25.289 75.3945 25.3746 75.3958 25.4802L75.4426 28.7259C75.5208 34.1447 79.9905 38.4537 85.619 38.5358L89.0039 38.5847C89.1134 38.5863 89.2024 38.6732 89.2024 38.7784V55.3104C89.2024 72.6159 78.539 88.2298 62.036 95.0886L61.9014 95.1445L61.7621 95.1895C60.6609 95.5429 59.4549 95.5428 58.3545 95.1895L58.215 95.1447L58.0804 95.0888C41.5771 88.2296 30.9134 72.6155 30.9134 55.3101V38.7787C30.9134 38.6735 31.0023 38.5865 31.1117 38.585L34.4978 38.5361C40.1255 38.4538 44.595 34.1447 44.6732 28.7259L44.7197 25.4805C44.7212 25.3751 44.8113 25.2893 44.9209 25.2893H67.5487C68.1751 25.2893 68.6827 24.8005 68.6827 24.1976C68.6827 23.5946 68.175 23.1055 67.5487 23.1055V23.1055Z" fill="white"/>
<path d="M34.3361 51.3857C33.7098 51.3857 33.2021 51.8744 33.2021 52.4774V55.31C33.2021 71.7357 43.3234 86.556 58.9874 93.0665C59.0171 93.0788 59.0474 93.0901 59.0784 93.0998C59.7114 93.3029 60.4073 93.3021 61.0379 93.0998C61.0687 93.09 61.099 93.0787 61.1289 93.0665C76.793 86.5558 86.9142 71.7357 86.9142 55.31V42.0369C86.9142 41.3321 86.3178 40.7497 85.5842 40.7389C78.7098 40.6384 73.25 35.3751 73.1546 28.7568C73.1448 28.0596 72.5481 27.4923 71.8249 27.4923H48.2911C47.5677 27.4923 46.9711 28.0595 46.9614 28.7565C46.866 35.375 41.4063 40.6382 34.5313 40.7389C33.7982 40.7499 33.2019 41.3323 33.2019 42.0369V47.3823C33.2019 47.9853 33.7096 48.4741 34.3359 48.4741C34.9622 48.4741 35.4699 47.9853 35.4699 47.3823V42.883C39.0237 42.6261 42.335 41.1657 44.8748 38.7176C47.4099 36.2738 48.9219 33.0912 49.1884 29.676H70.9274C71.194 33.0909 72.706 36.2738 75.241 38.7176C77.7811 41.1659 81.0922 42.6262 84.6457 42.883V55.3102C84.6457 70.8445 75.085 84.8628 60.2836 91.0394C60.1368 91.0792 59.9789 91.0792 59.8321 91.0394C45.0307 84.8629 35.4699 70.8447 35.4699 55.31V52.4774C35.4701 51.8744 34.9623 51.3857 34.3361 51.3857Z" fill="white"/>
</svg>
